<svg width="100%" height="100%" viewBox="0 0 51.327 38.701" xmlns="http://www.w3.org/2000/svg"><path d="m516.571 268.146a.811.811 0 0 0 -1.336-.335l-4.227 4.08a1.746 1.746 0 0 1 -2.388.035l-1.959-1.786a1.748 1.748 0 0 1 -.185-2.38l3.676-4.584a.811.811 0 0 0 -.456-1.3 9.356 9.356 0 0 0 -11.158 11.358l-2.5 2.737-.716-.652a7.247 7.247 0 0 0 -4.9-1.87l-5.02.052-3.676-3.353.617-.677a.812.812 0 0 0 -.053-1.146l-2.912-2.655a.811.811 0 0 0 -1.093 1.2l2.313 2.107-.618.677-10 10.964-.615.674-1.713-1.562 8.209-9a.811.811 0 1 0 -1.2-1.094l-8.756 9.6a.812.812 0 0 0 .053 1.146l2.911 2.656a.814.814 0 0 0 .547.212h.037a.816.816 0 0 0 .562-.264l.618-.677 1.588 1.448a19.879 19.879 0 0 1 3.76 4.642l1.449 2.47a.827.827 0 0 0 .153.189l5.71 5.206 3.647 3.325a2.864 2.864 0 0 0 1.943.755h.136a2.741 2.741 0 0 1 4.4-1.484h.135a2.879 2.879 0 0 0 2.743-3.076 2.866 2.866 0 0 0 2.8-3.063h.055a2.889 2.889 0 0 0 1.815-5.02l-1.032-.94a3.5 3.5 0 0 0 1.858-1.241 3.58 3.58 0 0 0 -.527-4.775l-4.03-3.676 2.798-3.069a.815.815 0 0 0 .18-.772 7.735 7.735 0 0 1 7.777-9.953l-2.781 3.468a3.374 3.374 0 0 0 .359 4.593l1.959 1.787a3.373 3.373 0 0 0 4.607-.066l3.195-3.085a7.753 7.753 0 0 1 -9.2 8.673.816.816 0 0 0 -.756.249l-2.031 2.227a.812.812 0 0 0 1.2 1.094l1.731-1.9a9.321 9.321 0 0 0 8.311-2.957 9.42 9.42 0 0 0 1.986-9.212zm-26.746 30.166a1.259 1.259 0 0 1 -.877.412 1.227 1.227 0 0 1 -.912-.33l-3.647-3.326a1.266 1.266 0 0 1 1.711-1.868l3.648 3.327a1.268 1.268 0 0 1 .077 1.785zm4.535-1.486a1.258 1.258 0 0 1 -.877.411 1.216 1.216 0 0 1 -.912-.33l-1.734-1.581-3.214-2.931a1.266 1.266 0 0 1 1.707-1.87l4.949 4.513a1.268 1.268 0 0 1 .081 1.787zm2.8-3.07a1.267 1.267 0 0 1 -1.788.082l-4.949-4.513a1.266 1.266 0 0 1 1.706-1.871l4.949 4.513a1.268 1.268 0 0 1 .081 1.788zm2.8-3.07a1.268 1.268 0 0 1 -1.788.082l-4.949-4.513a1.266 1.266 0 0 1 1.707-1.87l4.949 4.513a1.266 1.266 0 0 1 .08 1.787zm.55-6.154a1.86 1.86 0 0 1 -2.736.251l-5.956-5.43a.811.811 0 0 0 -1.068-.022c-.1.088-2.547 2.1-4.892.21a.811.811 0 1 0 -1.019 1.262 5.355 5.355 0 0 0 6.374.192l1.81 1.651a2.834 2.834 0 0 0 -1.82 2.865 2.869 2.869 0 0 0 -2.8 3.07 7.9 7.9 0 0 1 -5.291 3.609 2.867 2.867 0 0 0 -.628 1.141l-3.709-3.383-1.386-2.364a21.556 21.556 0 0 0 -4.067-5.02l-1.588-1.447 8.905-9.766 3.912 3.568a.837.837 0 0 0 .555.211l5.339-.055a5.565 5.565 0 0 1 3.793 1.447l5.944 5.42a1.949 1.949 0 0 1 .327 2.589z" fill="#fff" transform="translate(-465.696 -261.646)"/></svg>