<svg id="Group_9" data-name="Group 9" xmlns="http://www.w3.org/2000/svg" width="100%" height="100%" viewBox="0 0 48.309 39.014">
  <path id="Path_18" data-name="Path 18" d="M428.344,283.257a3.692,3.692,0,0,0-3.785.069l-10.183,6.334a3.522,3.522,0,0,0-2.687-4.311l-7.591-1.2a19.112,19.112,0,0,0-11.56,1.771l-1.6.8a2.526,2.526,0,0,0-2.5-2.2h-4.664a2.525,2.525,0,0,0-2.522,2.522v12.247a2.524,2.524,0,0,0,2.522,2.522h4.664a2.527,2.527,0,0,0,2.38-1.686H411.6a6.775,6.775,0,0,0,3.964-1.272l8.92-6.385a15.537,15.537,0,0,0,1.47-1.2c.152-.139.305-.276.46-.414a14.4,14.4,0,0,0,1.533-1.511,7.088,7.088,0,0,0,1.593-3.651A2.45,2.45,0,0,0,428.344,283.257Zm-39.912,16.871h-4.664a.852.852,0,0,1-.851-.85V287.031a.852.852,0,0,1,.851-.85h4.664a.852.852,0,0,1,.851.85v12.247A.852.852,0,0,1,388.432,300.128Zm38.234-11.875a13,13,0,0,1-1.364,1.337c-.16.143-.321.285-.479.43a13.916,13.916,0,0,1-1.313,1.076l-8.92,6.386a5.114,5.114,0,0,1-2.991.959H390.955V288.57l2.326-1.155a17.455,17.455,0,0,1,10.554-1.617l7.564,1.2c1.6.309,1.388,2.032,1.337,2.339a1.652,1.652,0,0,0-.022.327H404.59a.836.836,0,0,0,0,1.672h9.789a.818.818,0,0,0,.1-.021,1.628,1.628,0,0,0,.733-.226l10.225-6.339a2.023,2.023,0,0,1,2.074-.037.789.789,0,0,1,.363.777A5.374,5.374,0,0,1,426.666,288.253Z" transform="translate(-381.246 -262.786)" fill="#fff"/>
  <path id="Path_19" data-name="Path 19" d="M400.59,295.99h-5.732a.836.836,0,0,0,0,1.672h5.732a.836.836,0,1,0,0-1.672Z" transform="translate(-382.407 -263.987)" fill="#fff"/>
  <path id="Path_20" data-name="Path 20" d="M405.222,272.5l-1.922,5.919a.852.852,0,0,0,1.311.953l5.035-3.657,5.036,3.657a.852.852,0,0,0,1.311-.953l-1.923-5.919,5.034-3.658a.852.852,0,0,0-.5-1.542h-6.224l-1.924-5.919a.852.852,0,0,0-1.62,0l-1.924,5.919h-6.223a.852.852,0,0,0-.5,1.542Zm2.309-3.5a.852.852,0,0,0,.81-.589l1.3-4.014,1.3,4.014a.852.852,0,0,0,.81.589h4.22l-3.414,2.48a.851.851,0,0,0-.309.953l1.3,4.014-3.415-2.48a.851.851,0,0,0-1,0l-3.414,2.48,1.3-4.014a.851.851,0,0,0-.31-.953L403.312,269Z" transform="translate(-382.935 -260.789)" fill="#fff"/>
</svg>
