<svg id="Group_10" data-name="Group 10" xmlns="http://www.w3.org/2000/svg" width="100%" height="100%" viewBox="0 0 43.409 41.743">
  <path id="Path_22" data-name="Path 22" d="M603.908,269.815a.817.817,0,0,0-.3-.632l-7.6-7.939a.808.808,0,0,0-.241-.167c-.025-.012-.052-.019-.078-.029a.8.8,0,0,0-.22-.045c-.017,0-.033-.011-.05-.011h-22.8a.817.817,0,0,0-.816.816v5.905a.816.816,0,0,0,1.633,0v-5.089H594.6v7.19a.816.816,0,0,0,.816.816h6.848V301.1H573.44V296.24a.816.816,0,0,0-1.633,0v5.679a.816.816,0,0,0,.816.816h30.46a.816.816,0,0,0,.816-.816V269.854C603.9,269.84,603.908,269.828,603.908,269.815Zm-7.672-5.972L601.171,269h-4.936Z" transform="translate(-560.499 -260.992)" fill="#fff"/>
  <path id="Path_23" data-name="Path 23" d="M579.519,279.57l-2.438-2.438a.816.816,0,0,0-1.155,0l-5.74,5.74-2.265-2.264a.816.816,0,0,0-1.154,0l-2.442,2.439a.816.816,0,0,0,0,1.155l5.283,5.283a.813.813,0,0,0,.577.239h0a.816.816,0,0,0,.58-.246l8.75-8.753A.816.816,0,0,0,579.519,279.57Zm-9.335,8.182-4.127-4.127,1.286-1.286,2.265,2.264a.815.815,0,0,0,1.154,0l5.741-5.74,1.285,1.285Z" transform="translate(-559.797 -262.436)" fill="#fff"/>
  <path id="Path_24" data-name="Path 24" d="M598.858,274.808H588.484a.816.816,0,0,0,0,1.633h10.374a.816.816,0,0,0,0-1.633Z" transform="translate(-561.939 -262.247)" fill="#fff"/>
  <path id="Path_25" data-name="Path 25" d="M599.376,281.022h-5.187a.816.816,0,1,0,0,1.633h5.187a.816.816,0,0,0,0-1.633Z" transform="translate(-562.458 -262.811)" fill="#fff"/>
  <path id="Path_26" data-name="Path 26" d="M599.376,285.077h-5.187a.816.816,0,1,0,0,1.633h5.187a.816.816,0,0,0,0-1.633Z" transform="translate(-562.458 -263.18)" fill="#fff"/>
  <path id="Path_27" data-name="Path 27" d="M599.18,289.132h-7.146a.816.816,0,1,0,0,1.633h7.146a.816.816,0,0,0,0-1.633Z" transform="translate(-562.262 -263.548)" fill="#fff"/>
  <path id="Path_28" data-name="Path 28" d="M588.484,294.821h10.374a.816.816,0,0,0,0-1.633H588.484a.816.816,0,0,0,0,1.633Z" transform="translate(-561.939 -263.916)" fill="#fff"/>
  <path id="Path_29" data-name="Path 29" d="M599.635,297.243h-2.594a.816.816,0,1,0,0,1.633h2.594a.816.816,0,0,0,0-1.633Z" transform="translate(-562.717 -264.285)" fill="#fff"/>
  <path id="Path_30" data-name="Path 30" d="M583.618,282.935a12.125,12.125,0,1,0-12.125,12.124A12.138,12.138,0,0,0,583.618,282.935Zm-22.617,0a10.492,10.492,0,1,1,10.492,10.491A10.5,10.5,0,0,1,561,282.935Z" transform="translate(-559.369 -261.884)" fill="#fff"/>
</svg>
